<svg width="16" height="16" viewBox="0 0 16 16" fill="none" xmlns="http://www.w3.org/2000/svg">
<circle cx="8" cy="8" r="8" fill="#171C61"/>
<path d="M10.3147 7.74746C10.2901 7.19478 10.2164 6.66667 10.0691 6.18768C10.2778 6.06487 10.4743 5.91749 10.6708 5.74554C11.1497 6.3105 11.4321 7.01056 11.4935 7.74746H10.3147ZM9.89716 10.3143C10.0445 10.4126 10.1796 10.5108 10.3024 10.6214C10.0322 10.867 9.72525 11.0512 9.39371 11.1986C9.60246 10.9284 9.76209 10.6214 9.88488 10.3143M6.10284 10.3143C6.22563 10.6337 6.38526 10.9407 6.59401 11.1986C6.26247 11.0512 5.96777 10.867 5.68534 10.6214C5.82041 10.5108 5.95549 10.4003 6.09056 10.3143M6.11512 5.69642C5.96777 5.59816 5.83269 5.49991 5.7099 5.38937C5.98005 5.14374 6.28703 4.95951 6.61857 4.81213C6.40982 5.08233 6.25019 5.38937 6.1274 5.69642M9.41827 4.81213C9.74981 4.95951 10.0445 5.14374 10.3269 5.38937C10.1919 5.49991 10.0568 5.61044 9.92172 5.69642C9.79893 5.37709 9.63929 5.07005 9.43055 4.81213M8.28857 6.24909V4.55422C8.86569 4.72616 9.25863 5.38937 9.47966 5.94205C9.11128 6.11399 8.70606 6.21225 8.28857 6.24909ZM8.28857 7.75974V6.76492C8.75518 6.74036 9.20952 6.62982 9.63929 6.4456C9.74981 6.8509 9.8112 7.30532 9.83576 7.77202H8.30084L8.28857 7.75974ZM8.28857 9.27039V8.27557H9.82348C9.8112 8.74228 9.73753 9.18442 9.62701 9.602C9.20952 9.41777 8.75518 9.30724 8.27629 9.28267M8.27629 9.7985C8.69378 9.82307 9.08672 9.9336 9.46738 10.0933C9.24635 10.6459 8.85342 11.3214 8.27629 11.4811V9.78622V9.7985ZM7.76055 9.7985V11.4934C7.18342 11.3337 6.79048 10.6582 6.56946 10.1055C6.93784 9.9336 7.34305 9.83535 7.76055 9.81079M7.76055 8.30014V9.29495C7.29394 9.31952 6.8396 9.43005 6.40982 9.61428C6.29931 9.20898 6.23791 8.75456 6.21335 8.28785H7.74827L7.76055 8.30014ZM7.76055 6.78949V7.7843H6.21335C6.22563 7.3176 6.29931 6.87546 6.40982 6.45788C6.82732 6.64211 7.28166 6.75264 7.76055 6.7772M7.76055 6.26137C7.34305 6.23681 6.93784 6.12627 6.56946 5.95433C6.79048 5.40165 7.18342 4.72616 7.76055 4.5665V6.23681V6.26137ZM5.3538 5.77011C5.53799 5.94205 5.74674 6.08943 5.95549 6.21225C5.82041 6.69123 5.73446 7.21935 5.7099 7.77202H4.5188C4.56792 7.03512 4.85035 6.33506 5.34152 5.77011M4.5188 8.26329H5.69762C5.72218 8.81597 5.79586 9.34408 5.94321 9.82307C5.73446 9.94588 5.53799 10.0933 5.34152 10.2652C4.86262 9.70025 4.5802 9.00019 4.5188 8.26329ZM10.6585 10.2652C10.4743 10.0933 10.2655 9.94588 10.0568 9.82307C10.1919 9.34408 10.2778 8.81597 10.3024 8.26329H11.4812C11.4321 9.00019 11.1497 9.70025 10.6585 10.2652ZM10.8304 5.18058C9.27091 3.60853 6.74137 3.60853 5.16961 5.1683C3.61013 6.74036 3.61013 9.27039 5.16961 10.8302C6.72909 12.3899 9.25863 12.3899 10.8304 10.8302C12.3899 9.27039 12.3899 6.74036 10.8304 5.1683" fill="white"/>
</svg>
