<svg width="16" height="16" viewBox="0 0 16 16" fill="none" xmlns="http://www.w3.org/2000/svg">
<path d="M12.5644 9.88139C12.5481 10.3722 12.4663 10.6994 12.3517 10.9939C12.1063 11.6155 11.6319 12.09 11.0102 12.3354C10.7157 12.4499 10.3885 12.5317 9.89775 12.5481C9.40695 12.5644 9.24335 12.5808 8 12.5808C6.75665 12.5808 6.59305 12.5808 6.10225 12.5481C5.61145 12.5317 5.28425 12.4499 4.98978 12.3354C4.67894 12.2209 4.40082 12.0409 4.17178 11.8119C3.94274 11.5828 3.76278 11.3047 3.64826 10.9939C3.53374 10.6994 3.45194 10.3722 3.43558 9.88139C3.41922 9.39059 3.40286 9.22699 3.40286 7.98364C3.40286 6.74029 3.40286 6.57669 3.43558 6.08589C3.45194 5.59509 3.53374 5.26789 3.64826 4.97341C3.76278 4.66258 3.94274 4.38446 4.17178 4.15542C4.40082 3.92638 4.67894 3.74642 4.98978 3.6319C5.28425 3.51738 5.61145 3.43558 6.10225 3.41922C6.59305 3.40286 6.74029 3.3865 8 3.3865C9.25971 3.3865 9.40695 3.3865 9.89775 3.41922C10.3885 3.43558 10.7157 3.51738 11.0102 3.6319C11.3211 3.74642 11.5992 3.92638 11.8282 4.15542C12.0573 4.38446 12.2372 4.66258 12.3517 4.97341C12.4663 5.26789 12.5481 5.59509 12.5644 6.08589C12.5808 6.57669 12.5971 6.74029 12.5971 7.98364C12.5971 9.22699 12.5971 9.39059 12.5644 9.88139ZM8 0C3.58282 0 0 3.58282 0 8C0 12.4172 3.58282 16 8 16C12.4172 16 16 12.4172 16 8C16 3.58282 12.4172 0 8 0ZM10.454 6.10225C10.1431 6.10225 9.89775 5.85685 9.89775 5.54601C9.89775 5.23517 10.1431 4.98978 10.454 4.98978C10.7648 4.98978 11.0102 5.23517 11.0102 5.54601C11.0102 5.85685 10.7648 6.10225 10.454 6.10225ZM8 10.3558C6.69121 10.3558 5.64417 9.30879 5.64417 8C5.64417 6.69121 6.70757 5.64417 8 5.64417C9.29243 5.64417 10.3558 6.69121 10.3558 8C10.3558 9.30879 9.29243 10.3558 8 10.3558ZM11.5828 5.28425C11.5174 5.08793 11.3865 4.90798 11.2393 4.76074C11.092 4.6135 10.9121 4.48262 10.7157 4.41718C10.5521 4.35174 10.3067 4.2863 9.86503 4.25358C9.37423 4.23722 9.22699 4.22086 8.01636 4.22086C6.80573 4.22086 6.64213 4.22086 6.16769 4.25358C5.72597 4.26994 5.48057 4.35174 5.31697 4.41718C5.12065 4.48262 4.9407 4.6135 4.79346 4.76074C4.64622 4.90798 4.5317 5.08793 4.4499 5.28425C4.38446 5.44785 4.31902 5.69325 4.2863 6.13497C4.26994 6.62577 4.25358 6.77301 4.25358 7.98364C4.25358 9.19427 4.25358 9.35787 4.2863 9.83231C4.30266 10.274 4.38446 10.5194 4.4499 10.683C4.5317 10.8793 4.64622 11.0593 4.79346 11.2065C4.9407 11.3538 5.12065 11.4847 5.31697 11.5501C5.48057 11.6155 5.72597 11.681 6.16769 11.7137C6.65849 11.7301 6.78937 11.7464 8.01636 11.7464C9.24335 11.7464 9.39059 11.7464 9.88139 11.7137C10.3231 11.6973 10.5685 11.6155 10.7321 11.5501C11.1247 11.4029 11.4519 11.0757 11.5992 10.683C11.6646 10.5194 11.7301 10.274 11.7628 9.83231C11.7791 9.34151 11.7955 9.19427 11.7955 7.98364C11.7955 6.77301 11.7955 6.60941 11.7628 6.13497C11.7464 5.69325 11.6646 5.44785 11.5992 5.28425M9.55419 7.98364C9.55419 8.83436 8.86708 9.52147 8.01636 9.52147C7.16564 9.52147 6.47853 8.83436 6.47853 7.98364C6.47853 7.13292 7.16564 6.46217 8.01636 6.46217C8.86708 6.46217 9.55419 7.14928 9.55419 7.98364Z" fill="#171C61"/>
</svg>
