<svg width="16" height="16" viewBox="0 0 16 16" fill="none" xmlns="http://www.w3.org/2000/svg">
<circle cx="8" cy="8" r="8" fill="#171C61"/>
<path d="M8.83752 9.09524C8.38191 9.5 7.63149 9.5 7.17588 9.09524L6.82747 8.78571L4.40201 10.9405C4.49581 10.9762 4.58961 11 4.69682 11H11.3032C11.4104 11 11.5176 10.9762 11.6114 10.9405L9.18593 8.79762L8.83752 9.10714V9.09524ZM4.067 6.35714C4.0268 6.44048 4 6.52381 4 6.61905V10.369C4 10.4643 4.0268 10.5595 4.067 10.631L6.49246 8.4881L4.067 6.35714ZM8.50251 8.80952L11.598 6.05952C11.5042 6.02381 11.4104 6 11.2898 6H4.71022C4.60302 6 4.49581 6.02381 4.41541 6.05952L7.51089 8.80952C7.77889 9.05952 8.23451 9.05952 8.50251 8.80952ZM12 6.61905V10.369C12 10.4643 11.9732 10.5595 11.933 10.631L9.50754 8.4881L11.933 6.35714C11.9732 6.44048 12 6.52381 12 6.61905Z" fill="white"/>
</svg>
