<svg width="16" height="16" viewBox="0 0 16 16" fill="none" xmlns="http://www.w3.org/2000/svg">
<circle cx="8" cy="8" r="8" fill="#171C61"/>
<path d="M6.47543 7.43488C6.66682 8.27427 7.75628 9.3051 8.55129 9.51127C8.90462 9.59963 9.31685 9.39346 9.43463 9.04003C9.59657 8.52462 10.2738 8.36263 10.6713 8.76024L11.7902 9.87942C12.0699 10.1592 12.0699 10.6305 11.7902 10.9544L11.0394 11.7055C10.2444 12.5007 8.12434 11.6318 6.2546 9.74689C4.35541 7.87667 3.51624 5.77082 4.2818 4.97561L5.03264 4.20985C5.31236 3.93005 5.7982 3.93005 6.10737 4.20985L7.22627 5.32904C7.62378 5.72664 7.46183 6.40405 6.94655 6.56604C6.59321 6.68385 6.34293 7.08145 6.47543 7.43488Z" fill="white"/>
</svg>
