<svg width="16" height="16" viewBox="0 0 16 16" fill="none" xmlns="http://www.w3.org/2000/svg">
<path d="M12.9898 8C12.9898 8 12.9898 9.61963 12.7771 10.4049C12.6626 10.8303 12.319 11.1738 11.8937 11.2883C11.1084 11.501 7.98364 11.501 7.98364 11.501C7.98364 11.501 4.8589 11.501 4.07362 11.2883C3.64826 11.1738 3.3047 10.8303 3.19018 10.4049C2.97751 9.63599 2.97751 8 2.97751 8C2.97751 8 2.97751 6.38037 3.19018 5.59509C3.3047 5.16973 3.64826 4.82618 4.07362 4.71166C4.8589 4.49898 7.98364 4.49898 7.98364 4.49898C7.98364 4.49898 11.1084 4.49898 11.8937 4.71166C12.319 4.82618 12.6626 5.16973 12.7771 5.59509C12.9898 6.38037 12.9898 8 12.9898 8ZM8 0C3.58282 0 0 3.58282 0 8C0 12.4172 3.58282 16 8 16C12.4172 16 16 12.4172 16 8C16 3.58282 12.4172 0 8 0ZM7.00205 9.48875L9.60327 7.98364L7.00205 6.47853V9.47239V9.48875Z" fill="#171C61"/>
</svg>
